<svg width="12" height="4" viewBox="0 0 12 4" fill="none" xmlns="http://www.w3.org/2000/svg">
<path d="M1.99984 0.666667C1.2665 0.666667 0.666504 1.26667 0.666504 2C0.666504 2.73333 1.2665 3.33333 1.99984 3.33333C2.73317 3.33333 3.33317 2.73333 3.33317 2C3.33317 1.26667 2.73317 0.666667 1.99984 0.666667ZM9.99984 0.666667C9.2665 0.666667 8.6665 1.26667 8.6665 2C8.6665 2.73333 9.2665 3.33333 9.99984 3.33333C10.7332 3.33333 11.3332 2.73333 11.3332 2C11.3332 1.26667 10.7332 0.666667 9.99984 0.666667ZM5.99984 0.666667C5.2665 0.666667 4.6665 1.26667 4.6665 2C4.6665 2.73333 5.2665 3.33333 5.99984 3.33333C6.73317 3.33333 7.33317 2.73333 7.33317 2C7.33317 1.26667 6.73317 0.666667 5.99984 0.666667Z" fill="#006B68"/>
</svg>
