<svg width="12" height="4" viewBox="0 0 12 4" fill="none" xmlns="http://www.w3.org/2000/svg">
<path d="M1.93978 0.666667C1.20645 0.666667 0.606445 1.26667 0.606445 2C0.606445 2.73333 1.20645 3.33333 1.93978 3.33333C2.67311 3.33333 3.27311 2.73333 3.27311 2C3.27311 1.26667 2.67311 0.666667 1.93978 0.666667ZM9.93978 0.666667C9.20644 0.666667 8.60644 1.26667 8.60644 2C8.60644 2.73333 9.20644 3.33333 9.93978 3.33333C10.6731 3.33333 11.2731 2.73333 11.2731 2C11.2731 1.26667 10.6731 0.666667 9.93978 0.666667ZM5.93978 0.666667C5.20645 0.666667 4.60645 1.26667 4.60645 2C4.60645 2.73333 5.20645 3.33333 5.93978 3.33333C6.67311 3.33333 7.27311 2.73333 7.27311 2C7.27311 1.26667 6.67311 0.666667 5.93978 0.666667Z" fill="#006B68"/>
</svg>
